# xmcd
#
# Track frame offsets:
#	150
#	11582
#	22665
#	34652
#	47535
#	59317
#	72135
#	83517
#	95822
#	109302
#	120757
#	131172
#
# Disc length: 1885 seconds
#
# Revision: 1
# Processed by: cddbd v1.5.2PL0 Copyright (c) Steve Scherf et al.
# Submitted via: audiograbber 1.83.01
#
DISCID=8d075b0c
DTITLE=Ben E. King - What Is Soul?
DYEAR=1967
DGENRE=Soul
TTITLE0=The Record (Baby I Love You)
TTITLE1=She's Gone Again
TTITLE2=There's No Place To Hide
TTITLE3=Cry No More
TTITLE4=Goodnight My Love, Pleasant Dreams
TTITLE5=Katherine
TTITLE6=I Can't Break The News To Myself
TTITLE7=I Swear By Stars Above
TTITLE8=Get In A Hurry
TTITLE9=They Don't Give Medals To Yesterday's Heroes
TTITLE10=Teeny Wheeny Little Bit
TTITLE11=What Is Soul?
EXTD=
EXTT0=
EXTT1=
EXTT2=
EXTT3=
EXTT4=
EXTT5=
EXTT6=
EXTT7=
EXTT8=
EXTT9=
EXTT10=
EXTT11=
PLAYORDER=
